<?xml version="1.0" standalone="no"?><!DOCTYPE svg PUBLIC "-//W3C//DTD SVG 1.1//EN" "http://www.w3.org/Graphics/SVG/1.1/DTD/svg11.dtd"><svg t="1679924519185" class="icon" viewBox="0 0 1024 1024" version="1.1" xmlns="http://www.w3.org/2000/svg" p-id="10315" width="128" height="128" xmlns:xlink="http://www.w3.org/1999/xlink"><path d="M888.81 628.69c77.13-55.78 94.25-163.26 38.24-240.07a172.83 172.83 0 0 0-140.72-70.88h-70.74c51.5-23.64 96.12-54.24 114.52-93.23a99.44 99.44 0 0 0-3.2-91.38l-0.66-1.19c-14.76-25.65-53.18-50.23-105.89-47.35-46.5 2.58-131 29.75-208.36 172.31C434.68 114.33 350.14 87.17 303.64 84.59c-52.79-2.87-91.13 21.68-105.9 47.35l-0.65 1.19a99.43 99.43 0 0 0-3.25 91.36c18.4 39 63 69.6 114.57 93.25H237.7c-95.32-0.59-173.09 75.87-173.7 170.8a171.65 171.65 0 0 0 71.17 140.15C58.06 684.46 40.94 792 97 868.75a172.83 172.83 0 0 0 140.7 70.88h548.6c95.32 0.6 173.09-75.87 173.68-170.79a171.62 171.62 0 0 0-71.17-140.15z m3.53-138.87c0 58.29-47.42 105.57-106 105.59H545.8v-211.1h240.5c58.54-0.02 106.02 47.22 106.04 105.51zM723.58 151.27c1.74-0.11 3.44-0.16 5.08-0.15 22.67 0 36.35 9.61 39.17 13.65 7.48 14.92 4.8 24.59 1.6 31.37-16.94 35.9-95.21 74.8-203.8 102.5C631.37 171.3 696.8 152.92 723.58 151.27z m-469 44.87c-3.22-6.78-5.91-16.46 1.61-31.38 3-4.33 18.4-15 44.23-13.49 26.78 1.65 92.22 20 157.94 147.37C349.79 271 271.51 232 254.57 196.14zM131.17 489.86c0.22-58.41 47.87-105.63 106.53-105.55h240.46v211.1H237.7c-58.7 0.08-106.31-47.14-106.53-105.55zM237.7 873.09c-58.54 0.41-106.34-46.51-106.75-104.81S177.65 662.39 236.19 662h242v211.09z m550.73 0H545.8V662h240.5c58.54-0.59 106.48 46.19 107.07 104.49s-46.37 106-104.94 106.59z"></path></svg>