<?xml version="1.0" standalone="no"?><!DOCTYPE svg PUBLIC "-//W3C//DTD SVG 1.1//EN" "http://www.w3.org/Graphics/SVG/1.1/DTD/svg11.dtd"><svg t="1680531557165" class="icon" viewBox="0 0 1024 1024" version="1.1" xmlns="http://www.w3.org/2000/svg" p-id="2692" width="128" height="128" xmlns:xlink="http://www.w3.org/1999/xlink"><path d="M190.563662 728.674854 66.502112 728.674854c-25.665543 0-46.51029 20.804838-46.51029 46.426379 0 25.622564 20.844747 46.427402 46.51029 46.427402L190.563662 821.528636c25.710568 0 46.550199-20.801768 46.550199-46.427402C237.113861 749.4756 216.26502 728.674854 190.563662 728.674854z" p-id="2693"></path><path d="M237.113861 511.960091c0-25.671683-20.84884-46.472428-46.550199-46.472428L66.502112 465.487663c-25.665543 0-46.51029 20.800745-46.51029 46.472428 0 25.66145 20.844747 46.426379 46.51029 46.426379L190.563662 558.38647C216.27423 558.385447 237.113861 537.624611 237.113861 511.960091z" p-id="2694"></path><path d="M237.108744 248.811786c0-25.666566-20.849864-46.427402-46.555315-46.427402L66.491879 202.384383c-25.660426 0-46.50415 20.760836-46.50415 46.427402 0 25.621541 20.844747 46.426379 46.50415 46.426379l124.062574 0C216.26502 295.238165 237.108744 274.438443 237.108744 248.811786z" p-id="2695"></path><path d="M991.841068 109.485577c0-25.644053-28.765137-46.427402-64.184835-46.427402l-47.874357 0-16.370853 0L655.795499 63.058175l0-0.005117L159.557484 63.053058c-25.705452 0-46.505173 20.785396-46.505173 46.427402l0 46.427402 77.506235 0c51.417043 0 93.060489 41.605583 93.060489 92.898807 0 51.288107-41.643446 92.892667-93.060489 92.892667l-77.506235 0 0 77.395718 77.506235 0c51.417043 0 93.060489 41.561581 93.060489 92.854804 0 51.293223-41.643446 92.853781-93.060489 92.853781l-77.506235 0 0 77.393671 77.506235 0c51.417043 0 93.060489 41.606607 93.060489 92.900853 0 51.288107-41.643446 92.892667-93.060489 92.892667l-77.506235 0 0 46.387493c0 25.664519 20.804838 46.472428 46.505173 46.472428l457.759655 0 38.479383 0 207.615525 0 0 0.005117 64.24521 0 0-0.010233c35.418674 0 64.184835-20.803815 64.184835-46.468334L991.842091 109.485577zM604.19119 196.042955c1.478677 0 5.246491 0 11.268648 0 24.015973 4.356214 36.798091 10.839883 38.311561 19.451004 0 10.839883-2.25332 24.871457-6.760984 42.143842l205.081819 0c7.500834 0 11.268648 4.356214 11.268648 12.967336 0 12.967336 0 25.934672 0 38.902008-3.027963 8.661264-27.818579 11.903098-74.370825 9.725502l-4.50664-3.241834-85.638449 0c-9.014304 0-21.796422 1.11438-38.311561 3.241834-16.549931 0-27.818579 0-33.803897 0-3.028986 8.661264-5.282307 14.081717-6.760984 16.20917 1.478677 4.356214 3.731998 5.41943 6.760984 3.241834 18.028609 0 36.798091 0 56.341193 0l56.341193 0c19.508309 0 39.051411 0 58.595536 0 4.50664-2.127454 9.015328-3.241834 13.521968-3.241834 9.015328 4.356214 17.253966 9.725502 24.790616 16.20917l0 9.725502c0 10.839883-2.25332 19.451004-6.760984 25.934672-3.027963 12.967336-3.767813 32.41834-2.25332 58.351989 0 6.483668 0 15.144932 0 25.934672 1.478677 10.839883 2.25332 17.323551 2.25332 19.451004 0 12.967336-3.027963 22.692838-9.014304 29.176506-4.507664 0-7.535627 0-9.015328 0-7.535627 2.177596-12.782118 1.11438-15.775288-3.241834-34.579563 0-66.13014 0-94.653777 0-30.071899 0-57.114812 1.11438-81.130785 3.241834-3.027963 0-6.759961 0-11.268648 0-13.521968 0-20.281929-6.483668-20.281929-19.451004-1.51347-6.483668-0.774643-17.273409 2.25332-32.41834 1.478677-12.967336 2.25332-23.756053 2.25332-32.41834l0-25.934672c0-6.483668-0.774643-12.967336-2.25332-19.451004-10.528797 15.144932-21.057595 22.692838-31.550577 22.692838-15.036461-2.127454-27.819602-14.030551-38.311561-35.660174 48.065715-36.724413 74.369801-87.529519 78.877465-152.3662C598.170057 216.60834 599.683527 206.882837 604.19119 196.042955zM541.089014 277.088806c-7.535627 23.807219-18.028609 55.110155-31.550577 94.012164-1.51347 69.192895-2.25332 169.688727-2.25332 301.488519 1.478677 67.014276 2.25332 115.641787 2.25332 145.882532l0 6.483668c1.478677 19.451004-0.774643 29.176506-6.760984 29.176506l-40.565904-3.241834c-7.535627 2.127454-10.528797-2.177596-9.014304-12.967336-1.51347-6.483668-1.51347-12.967336 0-19.451004 1.478677-2.127454 2.25332-6.483668 2.25332-12.967336 2.993171-49.691749 4.507664-125.316124 4.507664-226.927359 0-19.451004 0-38.902008 0-58.351989s0-38.902008 0-58.353013c-13.521968 17.323551-26.304086 25.934672-38.311561 25.934672-19.543102 2.178619-35.319413-12.967336-47.326888-45.385677 70.601988-47.51313 111.907743-115.590622 123.95001-204.234521 0-21.578458 5.246491-33.482579 15.775288-35.660174 4.50664 2.177596 9.015328 4.356214 13.521968 6.483668 18.029632 12.967336 27.782763 22.692838 29.297256 29.176506C556.864302 251.154133 551.583019 264.12147 541.089014 277.088806zM865.613178 610.994642c-18.028609 2.178619-44.332694 0-78.877465-6.483668-36.058241-6.483668-62.362326-9.725502-78.877465-9.725502-19.544125 0-38.311561 0-56.341193 0-1.514493 4.356214-3.028986 9.725502-4.507664 16.20917-3.027963 6.483668-4.50664 10.839883-4.50664 12.967336l47.326888 0c34.543747 0 60.847833 1.11438 78.877465 3.241834 21.021779 0 41.304731 0 60.847833 0 2.993171-2.127454 7.500834-3.241834 13.521968-3.241834 15.000646 6.483668 24.015973 16.20917 27.043936 29.176506 0 4.356214-2.25332 10.840906-6.759961 19.451004-3.027963 4.357238-4.50664 7.599072-4.50664 9.725502-7.535627 28.113291-12.044314 72.434729-13.521968 132.915195 0 8.611122 0 16.20917 0 22.692838 1.477654 10.789741-11.268648 16.20917-38.311561 16.20917l-2.254344 0c-6.021134 0-8.274454-3.241834-6.759961-9.725502 1.478677-56.175417 5.246491-110.221334 11.268648-162.090679-9.015328-2.12643-18.029632-3.241834-27.043936-3.241834-25.564235 112.399953-56.342216 169.638585-92.399433 171.816181-7.535627-2.177596-15.776312-5.41943-24.790616-9.725502-6.022157-4.356214-9.788947-6.483668-11.268648-6.483668l-6.760984-12.967336c40.565904-8.611122 70.603011-57.238632 90.146113-145.882532-12.043291 0-23.310915 0-33.803897 0-37.572734 99.432617-75.884294 151.251819-114.935706 155.60701-19.544125 0-34.579563-12.967336-45.073568-38.902008 52.573379-17.273409 90.146113-55.110155 112.682385-113.464191-15.035438 0-27.818579 1.115404-38.311561 3.241834-19.543102 34.596959-36.832883 51.869345-51.833529 51.869345-13.521968 2.177596-27.043936-9.725502-40.565904-35.660174 2.993171-2.127454 8.239662-5.369288 15.775288-9.726525 16.515139-10.788717 29.297256-23.756053 38.311561-38.902008 7.500834-12.967336 15.000646-30.239721 22.536272-51.869345-4.50664 0-9.015328 1.11438-13.521968 3.241834-4.507664 2.178619-8.275477 2.178619-11.268648 0-4.50664 0-10.528797 1.11438-18.028609 3.241834-7.535627 0-13.521968 0-18.029632 0l-4.50664 0c-3.028986 2.178619-3.768837-1.063215-2.25332-9.725502 0-6.483668-0.775666-14.030551-2.25332-22.692838-3.028986-30.240745 6.759961-43.207058 29.297256-38.902008 5.986341 0 12.007475 1.11438 18.028609 3.241834 52.573379-2.127454 105.921401-1.064238 160.00825 3.241834 31.5516 0 64.580854 0 99.160417 0 21.022803 2.177596 42.044582 1.11438 63.102177-3.241834C895.650285 586.17435 883.64281 610.994642 865.613178 610.994642z" p-id="2696"></path><path d="M738.880799 470.070029l38.310537 0 0-3.241834 0-16.20917c-24.049742 0-47.325865 0-69.862137 0-24.050766 0-46.586015 0-67.608817 0l0 6.483668c0 4.357238-0.774643 8.662287-2.25332 12.967336l45.072545 0L738.880799 470.070029z" p-id="2697"></path><path d="M777.191336 385.783367c-24.049742 0-47.325865 0-69.862137 0s-45.072545 0-67.608817 0l0 22.692838 137.471978 0L777.19236 385.783367z" p-id="2698"></path></svg>