<?xml version="1.0" standalone="no"?><!DOCTYPE svg PUBLIC "-//W3C//DTD SVG 1.1//EN" "http://www.w3.org/Graphics/SVG/1.1/DTD/svg11.dtd"><svg t="1679924737392" class="icon" viewBox="0 0 1024 1024" version="1.1" xmlns="http://www.w3.org/2000/svg" p-id="25466" xmlns:xlink="http://www.w3.org/1999/xlink" width="128" height="128"><path d="M512 85.333333c235.605333 0 426.666667 191.061333 426.666667 426.666667s-191.061333 426.666667-426.666667 426.666667S85.333333 747.605333 85.333333 512 276.394667 85.333333 512 85.333333z m0 72.362667A354.346667 354.346667 0 0 0 157.696 512 354.346667 354.346667 0 0 0 512 866.304 354.346667 354.346667 0 0 0 866.304 512 354.346667 354.346667 0 0 0 512 157.696z m165.632 148.949333a30.464 30.464 0 0 1 40.192 40.192l-112.853333 258.133334-258.133334 112.938666a30.122667 30.122667 0 0 1-23.296 0.469334 30.421333 30.421333 0 0 1-16.853333-40.661334l112.853333-258.133333 258.090667-112.896zM450.56 491.093333l-64.256 147.029334 147.029333-64.384-82.773333-82.645334z m187.52-104.746666l-147.072 64.256 82.688 82.773333 64.426667-147.029333z"></path></svg>