<?xml version="1.0" standalone="no"?><!DOCTYPE svg PUBLIC "-//W3C//DTD SVG 1.1//EN" "http://www.w3.org/Graphics/SVG/1.1/DTD/svg11.dtd"><svg t="1680337129802" class="icon" viewBox="0 0 1024 1024" version="1.1" xmlns="http://www.w3.org/2000/svg" p-id="11592" width="128" height="128" xmlns:xlink="http://www.w3.org/1999/xlink"><path d="M728.32 914.9952H314.5728c-108.1344 0-196.1472-87.9616-196.1472-196.1472V305.1008c0-108.1344 88.0128-196.1472 196.1472-196.1472h413.7472c108.1344 0 196.1472 88.0128 196.1472 196.1472v413.7472c0 108.1856-87.9616 196.1472-196.1472 196.1472zM314.5728 180.6848c-68.608 0-124.4672 55.808-124.4672 124.4672v413.7472c0 68.608 55.808 124.4672 124.4672 124.4672h413.7472c68.608 0 124.4672-55.808 124.4672-124.4672V305.1008c0-68.608-55.808-124.4672-124.4672-124.4672H314.5728z" fill="#34332E" p-id="11593"></path><path d="M521.472 758.0672c-19.8144 0-35.84-16.0256-35.84-35.84v-332.288c0-19.8144 16.0256-35.84 35.84-35.84s35.84 16.0256 35.84 35.84v332.288c0 19.7632-16.0768 35.84-35.84 35.84zM350.8736 758.0672c-19.8144 0-35.84-16.0256-35.84-35.84v-141.824c0-19.8144 16.0256-35.84 35.84-35.84s35.84 16.0256 35.84 35.84v141.824c0 19.7632-16.0768 35.84-35.84 35.84zM692.0704 758.0672c-19.8144 0-35.84-16.0256-35.84-35.84V505.9072c0-19.8144 16.0256-35.84 35.84-35.84s35.84 16.0256 35.84 35.84v216.2688c0 19.8144-16.0768 35.8912-35.84 35.8912z"></path></svg>