<?xml version="1.0" standalone="no"?><!DOCTYPE svg PUBLIC "-//W3C//DTD SVG 1.1//EN" "http://www.w3.org/Graphics/SVG/1.1/DTD/svg11.dtd"><svg t="1679924821251" class="icon" viewBox="0 0 1024 1024" version="1.1" xmlns="http://www.w3.org/2000/svg" p-id="31276" xmlns:xlink="http://www.w3.org/1999/xlink" width="128" height="128"><path d="M928 416c0-51.1-27.2-89.2-50.9-116.7l-0.8-0.9-110.9-119.3a160 160 0 0 0-117.2-51.1H375.8a160 160 0 0 0-117.2 51.1L147.8 298.3C113.4 335.1 96 374.7 96 416A160 160 0 0 0 160 543.7V768a128.1 128.1 0 0 0 128 128h448a128.1 128.1 0 0 0 128-128V543.7a160 160 0 0 0 64-127.7zM800 768a64.1 64.1 0 0 1-64 64H288a64.1 64.1 0 0 1-64-64V572.8a160 160 0 0 0 160-60.9 160 160 0 0 0 256 0 160 160 0 0 0 160 60.9z m-32-256a96.2 96.2 0 0 1-96-96 32 32 0 1 0-64 0 96 96 0 1 1-192 0 32 32 0 0 0-64 0 96 96 0 0 1-192 0c0-24.9 11.3-49.1 34.6-74l110.9-119.4a96.5 96.5 0 0 1 70-30.6h272.7a96.5 96.5 0 0 1 70 30.6L829 341.5c24.5 28.5 35 50.8 35 74.5a96.2 96.2 0 0 1-96 96z"></path><path d="M592 672h-48v-48a32 32 0 1 0-64 0v48h-48a32 32 0 0 0 0 64H480v48a32 32 0 1 0 64 0v-48h48a32 32 0 0 0 0-64z"></path></svg>