<?xml version="1.0" standalone="no"?><!DOCTYPE svg PUBLIC "-//W3C//DTD SVG 1.1//EN" "http://www.w3.org/Graphics/SVG/1.1/DTD/svg11.dtd"><svg t="1680350962054" class="icon" viewBox="0 0 1024 1024" version="1.1" xmlns="http://www.w3.org/2000/svg" p-id="8269" width="128" height="128" xmlns:xlink="http://www.w3.org/1999/xlink"><path d="M939.03 392.05l-59.52-59.52c-27.29-27.29-71.7-27.29-99 0L547.76 565.29c-13.22 13.22-20.5 30.8-20.5 49.5 0 5.2 0.58 10.3 1.68 15.26l-87.6 53.65c-18.25 11.17-30.66 30.68-32.4 50.9l-12.08 140.1 140.11-12.07c20.22-1.74 39.72-14.16 50.9-32.4l53.67-87.64a70.464 70.464 0 0 0 15.24 1.68c17.93 0 35.85-6.82 49.5-20.47l232.76-232.76c27.28-27.28 27.28-71.69-0.01-98.99zM553.75 809.34c-4.6 7.5-12.53 12.78-20.22 13.44l-92.74 7.99 7.99-92.74c0.66-7.69 5.94-15.62 13.44-20.22L548.47 665l29.05 29.05 29.05 29.05-52.82 86.24z m357-346.58L677.99 695.52c-11.7 11.7-30.73 11.7-42.42 0l-29.76-29.76L576.04 636c-5.67-5.67-8.79-13.2-8.79-21.21 0-8.01 3.12-15.55 8.79-21.21L808.8 360.82c11.7-11.7 30.73-11.7 42.43 0l59.52 59.52c11.69 11.69 11.69 30.73 0 42.42zM631.26 275.95H177.15c-11.05 0-20-8.95-20-20s8.95-20 20-20h454.11c11.05 0 20 8.95 20 20s-8.96 20-20 20zM517.98 467.96H177.15c-11.05 0-20-8.95-20-20s8.95-20 20-20h340.83c11.05 0 20 8.95 20 20s-8.96 20-20 20zM404.52 659.96H177.15c-11.05 0-20-8.95-20-20s8.95-20 20-20h227.37c11.05 0 20 8.95 20 20s-8.95 20-20 20z" p-id="8270"></path><path d="M623.91 959.25H184.5c-66.17 0-120-53.83-120-120v-655c0-66.17 53.83-120 120-120h439.41c66.17 0 120 53.83 120 120v116.87c0 11.05-8.95 20-20 20s-20-8.95-20-20V184.25c0-44.11-35.89-80-80-80H184.5c-44.11 0-80 35.89-80 80v655c0 44.11 35.89 80 80 80h439.41c44.11 0 80-35.89 80-80v-49.92c0-11.05 8.95-20 20-20s20 8.95 20 20v49.92c0 66.17-53.83 120-120 120z" p-id="8271"></path></svg>