<?xml version="1.0" standalone="no"?><!DOCTYPE svg PUBLIC "-//W3C//DTD SVG 1.1//EN" "http://www.w3.org/Graphics/SVG/1.1/DTD/svg11.dtd"><svg t="1680413915838" class="icon" viewBox="0 0 1024 1024" version="1.1" xmlns="http://www.w3.org/2000/svg" p-id="4910" width="128" height="128" xmlns:xlink="http://www.w3.org/1999/xlink"><path d="M810.58 349.5c-18.43-25.71-36.58-48.5-37.32-49.44a30 30 0 0 0-23.46-11.3H284.09a30 30 0 0 0-23.57 11.44c-0.76 0.95-18.67 23.73-36.88 49.44-38.28 54-41.48 69.59-41.48 80.88v471c0 36.93 29.66 67 66.12 67h538.19c36.46 0 66.12-30 66.12-67v-471c0-11.34-3.24-26.93-42.01-81.02z m-18 552c0 3.85-2.74 7-6.12 7H248.28c-3.37 0-6.12-3.13-6.12-7V433.13c4.68-12.63 31.41-51.4 56.62-84.37h436.44c25.5 32.95 52.58 71.74 57.37 84.43zM312 247.45h410.72a70.08 70.08 0 0 0 70-70V125.5a70.08 70.08 0 0 0-70-70H312a70.08 70.08 0 0 0-70 70v51.95a70.08 70.08 0 0 0 70 70zM302 125.5a10 10 0 0 1 10-10h410.72a10 10 0 0 1 10 10v51.95a10 10 0 0 1-10 10H312a10 10 0 0 1-10-10z" p-id="4911"></path><path d="M669.87 592.35H547.38V474.62a30 30 0 0 0-60 0v117.73h-122.5a30 30 0 0 0 0 60h122.5v117.73a30 30 0 0 0 60 0V652.35h122.49a30 30 0 0 0 0-60z" p-id="4912"></path></svg>