<?xml version="1.0" standalone="no"?><!DOCTYPE svg PUBLIC "-//W3C//DTD SVG 1.1//EN" "http://www.w3.org/Graphics/SVG/1.1/DTD/svg11.dtd"><svg t="1680414329486" class="icon" viewBox="0 0 1024 1024" version="1.1" xmlns="http://www.w3.org/2000/svg" p-id="28641" width="128" height="128" xmlns:xlink="http://www.w3.org/1999/xlink"><path d="M952.421305 275.774958c-2.251224-6.958329-8.083941-12.177076-15.349255-13.712002-50.038573-10.335165-97.31428-9.209553-140.496853 3.274508-22.61457 6.549016-44.103528 16.167882-64.262216 28.754272 13.507345-128.933746-31.005496-187.670231-33.154392-190.433097-5.116419-6.549016-13.609673-9.311882-21.591286-7.060658-99.156191 27.935645-154.618167 134.152493-172.627961 174.981513-8.493255-1.125612-17.191166-1.739582-26.093734-1.739582-26.093734 0-50.959528 5.01409-73.778755 14.121315-12.381733-46.764065-55.052663-81.453383-105.705206-81.453382-57.815529 0-105.295893 45.126811-108.979714 102.123713-1.534926-0.61397-2.967523-1.330269-4.502449-1.841911-52.187469-21.181973-99.258519-19.44239-101.202758-19.340062-5.525732 0.204657-10.64215 2.660538-14.325972 6.753673-3.683821 4.093135-5.525732 9.516538-5.116418 14.939942C70.146098 379.638253 87.951234 438.784051 118.035775 480.94334c3.78615 5.321075 7.572299 10.02818 11.256121 14.223643-1.944239 2.865194-3.274508 6.242031-3.479165 9.925852-0.716299 10.02818-1.125612 20.158689-1.125612 30.289198 0 53.006096 10.437494 104.477266 30.903168 152.980913 19.749375 46.764065 48.094334 88.821025 84.216248 124.840612 36.121915 36.121915 78.076546 64.364545 124.840612 84.216248 48.503647 20.465674 99.872489 30.903168 152.980913 30.903168 53.006096 0 104.477266-10.437494 152.980914-30.903168 46.764065-19.749375 88.821025-48.094334 124.840611-84.216248 36.121915-36.121915 64.364545-78.076546 84.216249-124.840612 20.465674-48.401319 30.903168-99.872489 30.903168-152.980913 0-10.130509-0.409313-20.261017-1.125612-30.289198-0.818627-10.64215-9.721195-18.82842-20.363346-18.82842h-9.209553c14.632957-12.58639 27.321675-26.196063 37.963825-40.624363 18.316778-24.763466 30.596183-51.982812 36.633556-80.941741 10.335165-49.62926-1.534926-87.388428-2.046567-88.923353zM673.98581 140.803837c3.683821 7.572299 8.18627 18.82842 11.972419 33.870691 7.776956 30.493854 13.81433 82.067353-0.204657 156.255421-13.916658 13.712002-24.968122 27.424003-33.461377 39.294094-10.744479-18.623763-24.45648-35.405616-40.317377-49.629259 2.455881-19.544719 9.311882-52.187469 28.447287-78.076547 3.376836-4.502448 2.353553-10.949136-2.148896-14.223643-4.502448-3.376836-10.949136-2.353553-14.223644 2.148896-18.21445 24.763466-26.605376 53.927051-30.493854 75.518337-14.632957-10.335165-30.800839-18.623763-47.992006-24.763466 17.191166-36.633557 59.862097-112.868192 128.422105-140.394524z m-35.917258 328.781054c0 5.525732-0.306985 11.153792-0.818627 16.577196h-38.680124c-15.04227-52.494454-63.443589-90.048966-119.621865-90.048966-55.461977 0-103.863296 36.838213-119.314879 89.12801l-1.534926 0.920956h-37.349855c-0.61397-5.525732-0.818627-11.051464-0.818627-16.577196 0-87.695413 71.322874-159.120616 159.120616-159.120616 87.593085 0.102328 159.018287 71.425202 159.018287 159.120616z m-257.253523 16.679524c14.325972-41.136005 53.517738-69.68562 98.132907-69.68562 44.922154 0 83.909264 28.754272 98.132907 69.68562H380.815029zM231.006296 311.692215c0-37.759169 30.698511-68.45768 68.457679-68.457679 35.098631 0 64.05756 26.503048 68.048366 60.578395-33.052064 22.307585-59.145798 54.234036-74.188068 91.788548-16.884181-29.675227-38.27081-51.368842-60.27141-67.127411-1.330269-5.423404-2.046567-11.051464-2.046567-16.781853z m-122.998701 13.405017c15.758569 1.637254 38.475467 5.62806 62.624962 15.349255 11.870091 4.809433 22.819227 10.539822 32.949735 17.191167l1.841911 1.22794c37.65684 25.377436 62.317977 63.238933 73.676427 113.277506 0.102328 4.707105 0.306985 9.41421 0.716298 14.121315h-38.577795c-8.390926-25.786749-26.707705-72.653143-55.359649-95.779355-4.40012-3.581493-10.846807-2.865194-14.325971 1.534926-3.479165 4.40012-2.865194 10.846807 1.534925 14.325972 22.409913 18.112122 38.168482 55.564305 46.559409 79.918457h-39.089438c-5.525732-3.479165-18.112122-12.688718-31.312481-32.131108-15.144599-22.307585-33.768362-62.215649-41.238333-129.036075z m409.722794 562.396722c-194.116918 0-352.111922-157.995003-352.111922-352.111921 0-2.762866 0-5.525732 0.102328-8.288598H869.739982c0.102328 2.762866 0.102328 5.525732 0.102328 8.288598 0 194.116918-157.995003 352.111922-352.111921 352.111921z m396.829419-531.084241c-10.846807 52.187469-46.252423 95.881683-105.193564 129.854702h-75.722994c13.916658-31.517138 42.977915-86.160488 85.955831-109.286699 5.01409-2.660538 6.856001-8.80024 4.093134-13.81433-2.660538-4.911762-8.80024-6.856001-13.81433-4.195464-52.903767 28.447287-85.444189 95.472369-98.54222 127.296493h-33.25672c0.511642-5.525732 0.716299-11.051464 0.716298-16.577196 0-18.521435-2.558209-36.4289-7.265314-53.517738 7.060658-12.791046 25.479764-42.773259 57.303887-69.378635 51.778155-43.182572 114.607775-59.04347 187.158589-47.173378 2.046567 11.972419 3.683821 32.540422-1.432597 56.792245z"></path></svg>